<svg xmlns="http://www.w3.org/2000/svg" width="1600" height="400" viewBox="0 0 1600 400">
  <!-- Пресет «Всё вместе» — дефолтная обложка каждого профиля. -->
  <defs>
    <linearGradient id="bg" x1="0" y1="1" x2="1" y2="0">
      <stop offset="0" stop-color="#14563A"/><stop offset="1" stop-color="#1E7A50"/>
    </linearGradient>
  </defs>
  <rect width="1600" height="400" fill="url(#bg)"/>
  <g fill="none" stroke="#EAF7EE" stroke-opacity=".75" stroke-width="9" stroke-linejoin="round" transform="translate(130 110)">
    <path d="M0 130 L92 0 L184 130 Z M92 0 V130 M68 130 L92 82 L116 130"/>
  </g>
  <g fill="none" stroke="#F5C97C" stroke-opacity=".85" stroke-width="9" stroke-linejoin="round" transform="translate(450 90) rotate(-10)">
    <path d="M12 0 h94 q18 0 18 16 v20 q0 16 -18 16 h-94 q-12 0 -12 -12 v-28 q0 -12 12 -12 Z"/>
    <path d="M124 14 h24 v18 h-24 M148 18 h22 M34 52 l8 44 h34 l6 -44"/>
  </g>
  <g fill="none" stroke="#EAF7EE" stroke-opacity=".6" stroke-width="9" transform="translate(760 200) rotate(6)">
    <rect x="0" y="14" width="120" height="80" rx="14"/><circle cx="60" cy="54" r="24"/><path d="M34 14 l10 -14 h32 l10 14"/>
  </g>
  <g fill="none" stroke="#F5C97C" stroke-opacity=".7" stroke-width="8" stroke-linejoin="round" transform="translate(1050 80)">
    <path d="M70 0 a16 16 0 1 1 16 16 q-16 5 -16 20 L0 86 h140 Z"/>
  </g>
  <g fill="none" stroke="#EAF7EE" stroke-opacity=".5" stroke-width="8" transform="translate(1330 140) rotate(20)">
    <circle cx="0" cy="86" r="42"/><circle cx="0" cy="32" r="27"/><path d="M-6 -70 h12 v78 h-12 Z"/><circle cx="0" cy="80" r="9"/>
  </g>
  <g fill="none" stroke="#EAF7EE" stroke-opacity=".35" stroke-width="7" transform="translate(600 290) rotate(-6)">
    <rect x="0" y="14" width="82" height="56" rx="9"/><path d="M27 14 v-10 h28 v10 M41 14 v56"/>
  </g>
</svg>
